<?xml version="1.0" encoding="UTF-8"?>
<svg version="1.1" xmlns="http://www.w3.org/2000/svg" width="1280" height="1484">
<path d="M0 0 C4.22641341 3.29866412 7.66541849 6.80790222 11.140625 10.8828125 C14.25384585 14.42769842 17.63612355 17.69548607 21 21 C23.66723002 23.65398219 26.31795681 26.32226604 28.9453125 29.015625 C34.76102425 34.94892716 40.61517627 40.57800079 47.171875 45.70703125 C49.59891132 47.67480794 51.90642382 49.70611911 54.22265625 51.80078125 C58.85065267 55.93795865 63.69866681 59.68603284 68.6875 63.375 C69.56470703 64.02710449 70.44191406 64.67920898 71.34570312 65.35107422 C73.89283415 67.23996314 76.44529536 69.12137206 79 71 C79.64662598 71.47759766 80.29325195 71.95519531 80.95947266 72.44726562 C126.10008762 105.69416729 176.83144923 130.89871237 229 151 C229.70191467 151.27156921 230.40382935 151.54313843 231.12701416 151.82293701 C302.77235535 179.50433108 379.30565655 195.79825355 455.70544434 202.78710938 C458.00539068 203.00050015 460.30391999 203.22592109 462.60253906 203.453125 C517.93675664 208.81828783 575.69432045 208.47699714 631 203 C632.35348541 202.8691803 632.35348541 202.8691803 633.73431396 202.73571777 C659.98529136 200.19266683 686.04678929 196.69204439 712 192 C713.06492676 191.80854401 713.06492676 191.80854401 714.15136719 191.61322021 C766.72830849 182.12199949 818.31205434 167.63831915 868 148 C868.65599182 147.74130127 869.31198364 147.48260254 869.987854 147.21606445 C915.63720597 129.16346602 960.00748007 106.55021562 1000 78 C1001.46870326 76.96477744 1002.93745537 75.92962417 1004.40625 74.89453125 C1014.60969257 67.65892739 1024.41720061 60.03734663 1034 52 C1034.60827637 51.49082031 1035.21655273 50.98164062 1035.84326172 50.45703125 C1047.65834718 40.53299726 1058.9397991 30.1354362 1069.875 19.25 C1070.57665283 18.55302002 1071.27830566 17.85604004 1072.0012207 17.13793945 C1080.06967288 9.0476111 1080.06967288 9.0476111 1087 0 C1087.66 0 1088.32 0 1089 0 C1070.73440279 56.74748649 1038.65068904 110.41036596 1002 157 C1001.27554688 157.92683594 1000.55109375 158.85367187 999.8046875 159.80859375 C992.30029743 169.30301439 984.44389011 178.53063283 976.29101562 187.47338867 C974.88323705 189.02593561 973.48371702 190.58607961 972.09838867 192.15869141 C965.92355208 199.14670322 959.40098908 205.75205307 952.79760742 212.33276367 C950.93356756 214.19142108 949.07496488 216.05539614 947.21679688 217.91992188 C941.31459408 223.82576883 935.39832439 229.62651146 929 235 C927.89323263 235.96074563 926.78773596 236.92295729 925.68359375 237.88671875 C890.86533715 268.00411233 852.7245175 293.56961277 812 315 C811.00790527 315.52207031 810.01581055 316.04414062 808.99365234 316.58203125 C734.51425456 355.45935462 649.94701038 377.33125402 371.42477417 354.19869995 C351.19363807 347.82472468 331.43127188 340.50174702 312 332 C310.81051758 331.47970215 309.62103516 330.9594043 308.39550781 330.42333984 C250.49331366 304.80692411 197.36627414 269.75669554 150.9296875 226.7109375 C148.9644497 224.89243746 146.99409411 223.08408212 145.0078125 221.2890625 C135.90026317 213.04601363 126.93128517 204.61494051 118.96484375 195.24609375 C116.81005092 192.78286139 114.5818869 190.40039586 112.34130859 188.01538086 C106.27287668 181.55245771 100.52115909 174.94142318 95 168 C94.08058123 166.87145458 93.15993964 165.74390462 92.23828125 164.6171875 C74.02708353 142.26447423 57.25760696 118.07471621 43 93 C42.49049805 92.11199707 41.98099609 91.22399414 41.45605469 90.30908203 C30.28514906 70.8029622 20.06846904 51.05646442 11.125 30.4375 C10.85364227 29.81219391 10.58228455 29.18688782 10.30270386 28.54263306 C0 4.7220218 0 4.7220218 0 0 Z " fill="#F37625" transform="translate(93,909)"/>
<path d="M0 0 C1.25369385 0.71373779 1.25369385 0.71373779 2.53271484 1.44189453 C30.57469893 17.54659674 57.17358057 36.30689412 82 57 C82.57975586 57.48065918 83.15951172 57.96131836 83.75683594 58.45654297 C91.21525659 64.64767323 98.43680075 71.05497917 105.53808594 77.65136719 C106.95512223 78.95859974 108.38750337 80.24913739 109.8203125 81.5390625 C115.9811878 87.09560125 121.93528077 92.83126402 127.8125 98.6875 C128.87053833 99.7386499 128.87053833 99.7386499 129.94995117 100.81103516 C133.93496169 104.80779809 137.73990555 108.90626019 141.42553711 113.18041992 C143.52406202 115.6056496 145.69889321 117.95688272 147.875 120.3125 C152.79577302 125.7149752 157.4270049 131.30237581 162 137 C162.92389449 138.13198786 163.8484029 139.26347487 164.7734375 140.39453125 C184.72509096 164.89935645 202.51880555 191.46147416 218 219 C218.834104 220.48089111 218.834104 220.48089111 219.68505859 221.99169922 C234.29263112 248.10751993 246.47459622 275.01273601 257 303 C254 303 254 303 251.72265625 300.83203125 C250.82804416 299.83253009 249.94189935 298.82541171 249.0625 297.8125 C248.07317568 296.70549763 247.08358314 295.59873493 246.09375 294.4921875 C245.32804687 293.6273877 245.32804687 293.6273877 244.546875 292.74511719 C236.46109185 283.62308783 228.08984242 275.11896473 219 267 C218.10667969 266.16855469 217.21335937 265.33710938 216.29296875 264.48046875 C209.7374434 258.38565382 202.86598271 252.84644887 195.78515625 247.38671875 C194.04240616 246.03294133 192.31577729 244.66125802 190.59375 243.28125 C120.8556166 187.49275042 35.642433 151.3714909 -219 100 C-220.05852173 99.9200882 -220.05852173 99.9200882 -221.13842773 99.83856201 C-265.87246067 96.51469861 -311.27707504 96.49834561 -356 100 C-357.23224304 100.09474609 -357.23224304 100.09474609 -358.48937988 100.19140625 C-443.00620923 106.73247257 -527.51586095 123.17954615 -650 173 C-651.08313477 173.50611816 -652.16626953 174.01223633 -653.28222656 174.53369141 C-669.93252795 182.33951669 -686.14243966 190.66461881 -702 200 C-702.85352051 200.49709473 -703.70704102 200.99418945 -704.58642578 201.50634766 C-730.08568139 216.36907874 -754.33150196 233.0995047 -777 252 C-778.11964447 252.9233556 -779.23943019 253.84653996 -780.359375 254.76953125 C-792.1341433 264.53579889 -803.16228355 275.08699784 -814 285.875 C-814.69383789 286.56416504 -815.38767578 287.25333008 -816.10253906 287.96337891 C-820.07329162 291.94659399 -823.83870395 296.03336228 -827.45703125 300.34033203 C-829 302 -829 302 -832 304 C-830.00268639 296.82403458 -827.51857592 289.98535061 -824.625 283.125 C-824.19219727 282.09616699 -823.75939453 281.06733398 -823.31347656 280.00732422 C-798.00225517 220.42681683 -763.86765029 165.38165202 -720.23046875 117.4765625 C-718.97599148 116.0836753 -717.72796942 114.68468628 -716.503479 113.2653656 C-712.44063111 108.55739989 -708.21995631 104.07269356 -703.81640625 99.68359375 C-703.15720688 99.02343765 -702.49800751 98.36328156 -701.8188324 97.68312073 C-700.43603165 96.29964494 -699.05198924 94.91740917 -697.66674805 93.53637695 C-695.56769657 91.44268331 -693.4740406 89.34370126 -691.38085938 87.24414062 C-690.02636214 85.89030429 -688.67155469 84.53677825 -687.31640625 83.18359375 C-686.70156876 82.56673203 -686.08673126 81.9498703 -685.45326233 81.3143158 C-681.12979782 77.01366217 -676.62488068 72.97304039 -672 69 C-670.89407362 68.03828641 -669.78852434 67.07613875 -668.68359375 66.11328125 C-601.41095039 7.92321445 -520.41097248 -35.47951247 -427 -59 C-425.93652344 -59.27005859 -424.87304688 -59.54011719 -423.77734375 -59.81835938 C-344.42657649 -79.92916084 -259.86582218 -80.89672711 0 0 Z " fill="#F37625" transform="translate(925,217)"/>
<path d="M0 0 C19.15756552 16.24332239 32.69054846 36.94723443 38.125 61.6875 C38.34800781 62.6465625 38.57101562 63.605625 38.80078125 64.59375 C44.37930849 93.43511532 38.32755465 124.26033409 22.125 148.6875 C4.70127711 173.94653154 -20.79648285 190.74025408 -50.875 196.6875 C-79.19644907 201.85327451 -108.85305376 195.53191264 -132.76953125 179.78125 C-139.2351932 175.22363654 -145.19168266 170.185391 -150.875 164.6875 C-151.61363281 163.97464844 -152.35226563 163.26179688 -153.11328125 162.52734375 C-174.1152121 140.77934075 -182.4131133 111.17825425 -182.08984375 81.6328125 C-181.46872254 57.44380626 -172.14312504 32.70210367 -155.875 14.6875 C-155.23691406 13.89730469 -154.59882813 13.10710937 -153.94140625 12.29296875 C-139.85825316 -4.61213941 -119.08785313 -16.16264817 -97.875 -21.3125 C-97.21064941 -21.47476074 -96.54629883 -21.63702148 -95.86181641 -21.80419922 C-62.45866642 -29.5905 -26.58462214 -21.76930982 0 0 Z " fill="#9E9E9E" transform="translate(276.875,1277.3125)"/>
<path d="M0 0 C2.67611622 2.13651785 5.22669736 4.3417414 7.7421875 6.6640625 C8.39445312 7.24800781 9.04671875 7.83195312 9.71875 8.43359375 C24.74952496 22.570468 34.14824878 44.70787419 34.98046875 65.2109375 C35.50518627 89.84891791 29.2610122 113.14068446 11.92456055 131.43652344 C10.54287455 132.8579009 9.14286316 134.26139441 7.7421875 135.6640625 C7.01128906 136.4065625 6.28039063 137.1490625 5.52734375 137.9140625 C-11.90744656 154.53717729 -35.40124941 160.36358502 -58.81640625 159.90625 C-82.15476362 159.09104194 -103.16435281 148.34958927 -119.2578125 131.6640625 C-135.48055252 113.10828628 -143.19364231 89.56751761 -142.1328125 65.0390625 C-139.82427099 40.68265264 -128.41161962 18.34843514 -109.5703125 2.5390625 C-77.70830024 -21.83759294 -32.70623004 -24.19894681 0 0 Z " fill="#757576" transform="translate(1115.2578125,36.3359375)"/>
<path d="M0 0 C10.16994226 8.07076187 17.96762758 16.9008624 24.046875 28.41796875 C24.85898437 29.92230469 24.85898437 29.92230469 25.6875 31.45703125 C39.83413146 59.67884653 39.75360052 96.0521068 30.296875 125.66796875 C26.38979242 137.13912398 20.87170688 147.12368488 13.046875 156.41796875 C12.37785156 157.30355469 12.37785156 157.30355469 11.6953125 158.20703125 C-0.8547126 174.27987041 -22.02185229 182.48291774 -41.640625 185.16796875 C-43.07645501 185.27633328 -44.51446857 185.35781587 -45.953125 185.41796875 C-46.89929688 185.46953125 -47.84546875 185.52109375 -48.8203125 185.57421875 C-61.84402919 185.95633269 -74.48067913 183.78961547 -85.953125 177.41796875 C-86.85417969 176.92554688 -87.75523437 176.433125 -88.68359375 175.92578125 C-96.62019156 171.2466587 -101.07665252 166.29444123 -107.953125 159.41796875 C-108.283125 192.08796875 -108.613125 224.75796875 -108.953125 258.41796875 C-120.503125 258.41796875 -132.053125 258.41796875 -143.953125 258.41796875 C-143.96343246 255.65039185 -143.97373993 252.88281494 -143.98435974 250.03137207 C-144.07998585 224.46190499 -144.17988082 198.89245727 -144.28424194 173.3230243 C-144.29800623 169.94972466 -144.31173411 166.57642488 -144.32543945 163.203125 C-144.32816776 162.53175725 -144.33089606 161.8603895 -144.33370704 161.16867727 C-144.37469904 151.06167758 -144.41323977 140.95467056 -144.45043945 130.84765625 C-144.49378442 119.07209764 -144.54017593 107.29655534 -144.59000355 95.52102232 C-144.61620739 89.30463436 -144.64103727 83.08824877 -144.66219902 76.87184143 C-144.76141216 48.04047042 -145.08078743 19.23697084 -145.953125 -9.58203125 C-135.393125 -9.58203125 -124.833125 -9.58203125 -113.953125 -9.58203125 C-112.828125 0.54296875 -112.828125 0.54296875 -112.85546875 4.890625 C-112.85869141 5.80908203 -112.86191406 6.72753906 -112.86523438 7.67382812 C-112.87780273 9.06311523 -112.87780273 9.06311523 -112.890625 10.48046875 C-112.89513672 11.44146484 -112.89964844 12.40246094 -112.90429688 13.39257812 C-112.91594794 15.73444297 -112.93230475 18.07617056 -112.953125 20.41796875 C-112.293125 20.41796875 -111.633125 20.41796875 -110.953125 20.41796875 C-110.685 19.83402344 -110.416875 19.25007812 -110.140625 18.6484375 C-102.86200758 4.97708701 -87.51439128 -5.15598986 -73.08984375 -9.93359375 C-48.498965 -17.15245784 -21.35898156 -15.05864705 0 0 Z M-91.93359375 31.10546875 C-101.27721158 41.80454371 -108.99083664 54.60425453 -109.11425781 69.21728516 C-109.12386536 70.14239899 -109.1334729 71.06751282 -109.14337158 72.0206604 C-109.14762146 73.01028778 -109.15187134 73.99991516 -109.15625 75.01953125 C-109.16195007 76.05177826 -109.16765015 77.08402527 -109.17352295 78.14755249 C-109.18295709 80.33126811 -109.18950062 82.51499787 -109.19335938 84.69873047 C-109.20302975 88.01035005 -109.23405427 91.32133935 -109.265625 94.6328125 C-109.27215937 96.76171509 -109.27740814 98.8906221 -109.28125 101.01953125 C-109.2935968 101.99701324 -109.3059436 102.97449524 -109.31866455 103.9815979 C-109.27272828 118.43132953 -104.26754407 130.65472844 -94.33203125 141.09765625 C-83.70693677 151.46104889 -71.11743367 157.14749903 -56.203125 157.73046875 C-41.4185851 157.31400284 -28.72052643 152.33298944 -18.015625 142.10546875 C-2.10724529 125.11190203 1.89043791 102.31106667 1.328125 79.7578125 C0.61192695 62.97192078 -4.08201921 46.49938236 -14.953125 33.41796875 C-15.57445312 32.6496875 -16.19578125 31.88140625 -16.8359375 31.08984375 C-25.6673518 21.21746426 -38.20276962 15.52565596 -51.30859375 14.4140625 C-65.79453337 14.42958869 -81.50951911 20.90063851 -91.93359375 31.10546875 Z " fill="#4D4D4D" transform="translate(534.953125,631.58203125)"/>
<path d="M0 0 C18.18284474 15.59672166 27.42950586 39.41729533 29.31640625 62.9453125 C29.40273299 64.33828211 29.48463114 65.731532 29.5625 67.125 C29.6042334 67.85984619 29.6459668 68.59469238 29.68896484 69.35180664 C30.6616834 87.6766332 30.6616834 87.6766332 29 91 C-14.89 91 -58.78 91 -104 91 C-101.3486301 112.2109592 -96.53191571 128.1207699 -80 142 C-60.35666431 156.04633045 -36.91587416 155.58550498 -14 152 C-8.31595659 150.81660765 -2.75501216 149.22963931 2.81445312 147.6015625 C6.50894935 146.5846681 10.2512243 145.78898395 14 145 C15.00366845 149.12411639 16.00231379 153.24943269 17 157.375 C17.28617188 158.550625 17.57234375 159.72625 17.8671875 160.9375 C18.13789062 162.05898438 18.40859375 163.18046875 18.6875 164.3359375 C19.06455078 165.89127197 19.06455078 165.89127197 19.44921875 167.47802734 C20 170 20 170 20 172 C2.66290838 178.21401133 -14.9643485 183.05243298 -33.49609375 183.23828125 C-34.68381126 183.25038887 -34.68381126 183.25038887 -35.89552307 183.26274109 C-37.56533687 183.27648884 -39.23517766 183.28725203 -40.9050293 183.29516602 C-42.57731639 183.30661231 -44.24956912 183.32694565 -45.92163086 183.35668945 C-60.84856127 183.62110514 -75.26763125 182.14376403 -88.8125 175.3125 C-89.51060791 174.9707373 -90.20871582 174.62897461 -90.92797852 174.27685547 C-111.43183072 163.88723274 -127.09806638 145.59423608 -134.72460938 123.94287109 C-144.21906946 93.65554342 -139.78945675 57.4337297 -125.45703125 29.390625 C-121.99707096 22.99405975 -117.79184035 17.44804778 -113 12 C-112.29359375 11.18273437 -111.5871875 10.36546875 -110.859375 9.5234375 C-83.36809182 -20.10605659 -32.02938691 -24.09248605 0 0 Z M-88 26 C-88.64839844 26.62648438 -89.29679688 27.25296875 -89.96484375 27.8984375 C-99.21761785 37.4954067 -103 49.98443026 -103 63 C-70 63 -37 63 -3 63 C-3 45.71579478 -5.56931679 33.81696119 -17.3125 21.1875 C-23.81058105 15.12553178 -31.47052587 11.29048003 -40 9 C-40.825 8.773125 -41.65 8.54625 -42.5 8.3125 C-60.22936665 6.09632917 -75.7216667 13.57219133 -88 26 Z " fill="#4D4D4D" transform="translate(1083,634)"/>
<path d="M0 0 C12.87 0 25.74 0 39 0 C42.12095458 7.490291 45.16793262 14.9338571 47.9765625 22.53515625 C48.33967026 23.5116362 48.70277802 24.48811615 49.07688904 25.4941864 C50.26197494 28.6827456 51.44367133 31.87254705 52.625 35.0625 C54.32354513 39.64217713 56.02310825 44.22147622 57.72265625 48.80078125 C58.15672287 49.97115936 58.59078949 51.14153748 59.03800964 52.34738159 C62.04257181 60.44220875 65.07497734 68.52619874 68.12109375 76.60546875 C76.3755709 98.53038782 84.49132132 120.41734458 91.27001953 142.85009766 C91.8082061 144.95561235 91.8082061 144.95561235 93 146 C93.2902002 145.03328369 93.58040039 144.06656738 93.87939453 143.07055664 C100.83939571 119.9411905 108.27032046 97.01902109 116.17295837 74.19551086 C118.54112226 67.35004756 120.87558844 60.49350873 123.19921875 53.6328125 C123.55293549 52.58929626 123.90665222 51.54578003 124.27108765 50.47064209 C125.66024338 46.37213837 127.04938029 42.27363288 128.43469238 38.17382812 C132.76244902 25.37144724 137.27741193 12.66262968 142 0 C154.21 0 166.42 0 179 0 C178.33781758 3.97309453 177.8649245 6.77647813 176.49145508 10.36645508 C176.18127441 11.18531189 175.87109375 12.0041687 175.55151367 12.84783936 C175.21095947 13.72949768 174.87040527 14.61115601 174.51953125 15.51953125 C173.9790918 16.93833588 173.9790918 16.93833588 173.42773438 18.38580322 C172.22821532 21.53019143 171.02048313 24.67135469 169.8125 27.8125 C168.9608001 30.0388352 168.10948954 32.26531937 167.25854492 34.49194336 C164.51454736 41.66470554 161.7578474 48.83255397 159 56 C158.06767525 58.42511749 157.13538351 60.85024767 156.203125 63.27539062 C151.11311743 76.51145426 146.00730065 89.74132969 140.88485718 102.96487427 C138.44319813 109.26827188 136.00736276 115.57384769 133.57905579 121.88240051 C84.97601752 248.08830143 84.97601752 248.08830143 36.58984375 271.4921875 C30.86520896 273.8966587 25.02805273 275.52505093 19 277 C16.46452251 270.60420092 14.57857465 264.1456735 12.8125 257.5 C12.53986328 256.48679687 12.26722656 255.47359375 11.98632812 254.4296875 C11.32070679 251.95404324 10.65868443 249.47749719 10 247 C11.56461819 246.21257529 13.12984283 245.42635554 14.6953125 244.640625 C15.56687988 244.20266602 16.43844727 243.76470703 17.33642578 243.31347656 C19.83161308 242.08303589 22.34658412 240.91017701 24.875 239.75 C32.55394146 235.91052927 39.64358861 230.59397709 45.625 224.4375 C46.800625 223.2309375 46.800625 223.2309375 48 222 C48.66 222 49.32 222 50 222 C50.2475 221.43410156 50.495 220.86820313 50.75 220.28515625 C52.20198106 217.63075337 53.97681602 215.68829218 56 213.4375 C60.24767495 208.34166917 63.41858492 202.99278914 66.5 197.125 C66.933125 196.30443115 67.36625 195.4838623 67.8125 194.63842773 C71.33638592 188.00303755 71.33638592 188.00303755 71.57434082 180.66191101 C71.31842163 179.87846817 71.06250244 179.09502533 70.79882812 178.2878418 C70.37162476 176.97884415 70.37162476 176.97884415 69.93579102 175.6434021 C68.47338831 171.51243875 66.88364372 167.44772205 65.21875 163.39453125 C64.67059128 162.04403687 64.67059128 162.04403687 64.11135864 160.66625977 C62.911719 157.71330065 61.70582216 154.76293925 60.5 151.8125 C59.64583935 149.71267984 58.79217015 147.6126597 57.93896484 145.51245117 C56.16922613 141.1572609 54.39739006 136.80293299 52.62402344 132.44921875 C48.99387997 123.53277265 45.38834542 114.60640444 41.78317261 105.67984009 C40.22559596 101.82367743 38.6668958 97.96796933 37.10820007 94.11225891 C35.49655707 90.1255174 33.88521497 86.13865429 32.27386475 82.15179443 C31.40251393 79.99589942 30.53113398 77.84001619 29.659729 75.68414307 C26.87089014 68.78447283 24.08256296 61.88459615 21.29486084 54.98446655 C20.41061124 52.7959498 19.52621899 50.60749067 18.6416626 48.4190979 C16.1809971 42.33120848 13.72390372 36.24189742 11.27069092 30.15100098 C10.38078827 27.94426125 9.48925263 25.73817968 8.59649658 23.53259277 C7.18751601 20.05162412 5.78286603 16.56893366 4.37890625 13.0859375 C3.9402977 12.00535065 3.50168915 10.92476379 3.04978943 9.81143188 C2.45002037 8.31995132 2.45002037 8.31995132 1.83813477 6.79833984 C1.48243912 5.91818207 1.12674347 5.03802429 0.76026917 4.13119507 C0 2 0 2 0 0 Z " fill="#4D4D4D" transform="translate(594,622)"/>
<path d="M0 0 C11.88 0 23.76 0 36 0 C36 63.36 36 126.72 36 192 C25.77 192 15.54 192 5 192 C3.19800208 190.19800208 3.63512986 187.43686131 3.46484375 184.99609375 C3.37783203 183.78115234 3.29082031 182.56621094 3.20117188 181.31445312 C3.11416016 180.03505859 3.02714844 178.75566406 2.9375 177.4375 C2.80118164 175.51260742 2.80118164 175.51260742 2.66210938 173.54882812 C2.43731054 170.36614985 2.21680182 167.18323142 2 164 C1.087948 165.15846436 1.087948 165.15846436 0.1574707 166.34033203 C-12.10798018 181.81614706 -28.03370808 192.54753076 -47.8671875 195.68359375 C-67.46217835 197.66263896 -87.03966977 194.62313808 -102.9375 182.25 C-117.71903865 167.85541262 -125.42561009 146.70850451 -126.08926582 126.2479248 C-126.12271313 122.97604648 -126.12367732 119.70562947 -126.11352539 116.43359375 C-126.11367142 115.19372208 -126.11381744 113.9538504 -126.1139679 112.67640686 C-126.11339322 109.29886478 -126.10839987 105.92138485 -126.10139394 102.54385376 C-126.09511572 99.00580023 -126.09455308 95.46774574 -126.09336853 91.9296875 C-126.09026834 85.2398698 -126.08207273 78.55006857 -126.07201904 71.8602581 C-126.06081704 64.23990547 -126.05533718 56.61955202 -126.05032361 48.99919319 C-126.03988894 33.33278432 -126.02155987 17.66639811 -126 2 C-114.45 2 -102.9 2 -91 2 C-90.970271 6.65162231 -90.970271 6.65162231 -90.93994141 11.3972168 C-90.87258644 21.72287819 -90.79495794 32.04844475 -90.71247292 42.37399578 C-90.66284305 48.6252038 -90.61651434 54.87639759 -90.578125 61.12768555 C-90.54084609 67.17729977 -90.49438008 73.22678409 -90.44193649 79.27628517 C-90.42361593 81.56713357 -90.40842875 83.85800958 -90.39665604 86.14890099 C-90.33712723 97.34783394 -90.12719328 108.47206708 -89.08349609 119.62817383 C-88.96502288 120.89481511 -88.96502288 120.89481511 -88.84415627 122.1870451 C-87.38461299 136.20777235 -82.69068108 149.12883286 -71.52734375 158.3046875 C-61.4445242 165.06812442 -49.06672847 165.57615551 -37.44140625 163.3046875 C-22.76208444 159.18963616 -13.43273239 151.45805422 -5.578125 138.6484375 C-1.49960409 129.21938173 -0.55428781 119.49415536 -0.56762695 109.32495117 C-0.5574353 108.13311722 -0.54724365 106.94128326 -0.53674316 105.71333313 C-0.50685205 101.82316237 -0.49738374 97.93323879 -0.48828125 94.04296875 C-0.47303832 91.3262573 -0.45340689 88.60958218 -0.43388367 85.89289856 C-0.39045855 79.50431664 -0.36176518 73.11575976 -0.33856028 66.72707587 C-0.31137881 59.44509747 -0.26747616 52.16324861 -0.22227156 44.88136327 C-0.12976946 29.92096557 -0.06013865 14.96056939 0 0 Z " fill="#4D4D4D" transform="translate(291,621)"/>
<path d="M0 0 C7.81043005 7.31531563 12.89821354 15.75468803 16.75 25.6875 C17.07097656 26.491875 17.39195312 27.29625 17.72265625 28.125 C23.21386043 44.47091011 20.13805016 63.25897997 12.6875 78.375 C3.33135428 94.53020925 -10.25654827 104.34470464 -27.875 109.8125 C-45.25791618 114.31918197 -62.27437035 111.14905323 -77.92578125 102.796875 C-93.29324305 93.04548913 -103.74410598 77.86706078 -107.7421875 60.10546875 C-110.48595864 41.63777839 -107.18041658 24.1318041 -96.21484375 8.8515625 C-86.12123278 -4.1437391 -71.91355143 -14.16336907 -55.25 -16.3125 C-54.10724609 -16.49232422 -54.10724609 -16.49232422 -52.94140625 -16.67578125 C-32.86393691 -19.34206918 -15.17638958 -12.92043978 0 0 Z " fill="#606161" transform="translate(162.25,174.3125)"/>
<path d="M0 0 C0 17.82 0 35.64 0 54 C16.17 54 32.34 54 49 54 C49 62.91 49 71.82 49 81 C32.83 81 16.66 81 0 81 C0.06181298 100.94447495 0.06181298 100.94447495 0.16015625 120.88867188 C0.20839737 129.03019476 0.2530682 137.17157956 0.27099609 145.31323242 C0.28548047 151.88158792 0.32072958 158.44964693 0.36830902 165.01784706 C0.38307795 167.5162581 0.39103842 170.01471951 0.39188385 172.51317406 C-0.14925665 193.34585709 -0.14925665 193.34585709 7.75 212.125 C13.37203404 217.70549192 19.2205956 218.23673053 26.8125 218.25 C33.23665753 218.17140101 39.61860332 217.75711486 46 217 C46.94242818 226.03721311 47.11157151 234.92551747 47 244 C37.01868922 247.42391059 27.65493441 248.40878657 17.125 248.4375 C15.98506592 248.44716797 14.84513184 248.45683594 13.6706543 248.46679688 C0.92342084 248.34046708 -10.90817881 244.61522885 -20.6875 236.125 C-32.7627773 223.06042287 -36.17042399 204.43713258 -36.11352539 187.37329102 C-36.11367142 186.2213475 -36.11381744 185.06940399 -36.1139679 183.8825531 C-36.11327338 180.08965141 -36.10550256 176.29679933 -36.09765625 172.50390625 C-36.09579043 169.86832201 -36.0943673 167.23273742 -36.09336853 164.59715271 C-36.09026747 158.37833348 -36.08207067 152.15953195 -36.07201904 145.9407205 C-36.06081976 138.85726131 -36.05533786 131.77380124 -36.05032361 124.69033539 C-36.03988698 110.12687986 -36.0215568 95.56344345 -36 81 C-45.57 81 -55.14 81 -65 81 C-65 72.09 -65 63.18 -65 54 C-55.1 54 -45.2 54 -35 54 C-35 38.82 -35 23.64 -35 8 C-16.93181818 3.18181818 -16.93181818 3.18181818 -11.3125 1.75 C-10.65056641 1.57726562 -9.98863281 1.40453125 -9.30664062 1.2265625 C-6.05004972 0.40177767 -3.39326935 0 0 0 Z " fill="#4E4E4E" transform="translate(866,568)"/>
<path d="M0 0 C11.88 0 23.76 0 36 0 C36.06783011 25.42655163 36.12304759 50.85302952 36.15543652 76.27964878 C36.17087777 88.08677482 36.19191472 99.89384047 36.22631836 111.70092773 C36.25630481 121.99701239 36.27559491 132.2930533 36.28226548 142.58918041 C36.28616211 148.03632619 36.2952622 153.48334684 36.31719017 158.93045235 C36.33770162 164.06778118 36.34380444 169.20493452 36.33932304 174.34230042 C36.34014173 176.21786392 36.34601937 178.09343389 36.35761642 179.96896172 C36.5110829 206.09128804 29.85734745 232.08906834 11.5 251.59375 C-4.45284831 266.58942742 -25.98861029 270.79816509 -47 272 C-48.65707093 263.01638277 -50.27643663 254.11689851 -51 245 C-49.98421875 244.84144531 -48.9684375 244.68289063 -47.921875 244.51953125 C-34.51294843 242.3016117 -20.34868248 238.69488508 -11.1875 227.85546875 C4.0368 204.9048365 -0.6671542 169.18072282 -0.59528303 142.91684461 C-0.57945464 137.87738662 -0.55272945 132.8379855 -0.5272522 127.79856873 C-0.48080811 118.29371081 -0.44389981 108.78884177 -0.41057932 99.28392977 C-0.3721122 88.44680766 -0.32276811 77.60974315 -0.27259517 66.77266991 C-0.16978769 44.51515087 -0.08179887 22.25760685 0 0 Z " fill="#4D4D4D" transform="translate(66,621)"/>
<path d="M0 0 C0 10.89 0 21.78 0 33 C-2.536875 33.0825 -5.07375 33.165 -7.6875 33.25 C-21.78080533 33.95392074 -36.20178717 38.29664049 -46 49 C-59.80921418 67.24684748 -59.30804003 87.48983306 -59.4140625 109.33203125 C-59.4327987 111.7796848 -59.45237389 114.22733206 -59.4727478 116.67497253 C-59.523816 123.07809723 -59.56357644 129.48124281 -59.60089111 135.88446045 C-59.64109039 142.4340928 -59.69210968 148.98364018 -59.7421875 155.53320312 C-59.83864672 168.35541465 -59.922145 181.17766201 -60 194 C-71.55 194 -83.1 194 -95 194 C-95 131.3 -95 68.6 -95 4 C-84.44 4 -73.88 4 -63 4 C-62.67 14.89 -62.34 25.78 -62 37 C-60.02 33.04 -58.04 29.08 -56 25 C-44.90030167 10.07451807 -30.57548891 1.99202577 -12.265625 -0.8359375 C-9 -1 -9 -1 0 0 Z " fill="#4D4D4D" transform="translate(1258,618)"/>
</svg>
